<?xml version="1.0" encoding="utf-8"?>
<!-- Generator: Adobe Illustrator 24.0.0, SVG Export Plug-In . SVG Version: 6.00 Build 0)  -->
<svg version="1.1" id="Layer_1" xmlns="http://www.w3.org/2000/svg" xmlns:xlink="http://www.w3.org/1999/xlink" x="0px" y="0px"
	 viewBox="0 0 612 792" style="enable-background:new 0 0 612 792;" xml:space="preserve">
<style type="text/css">
	.st0{fill:url(#SVGID_1_);}
	.st1{clip-path:url(#SVGID_3_);}
	.st2{fill:url(#SVGID_4_);}
	.st3{fill:url(#SVGID_5_);}
	.st4{clip-path:url(#SVGID_6_);}
	.st5{clip-path:url(#SVGID_7_);}
	.st6{fill:url(#SVGID_9_);}
	.st7{fill:#FFFFFF;}
	.st8{fill:#38C15F;stroke:#0D0D0D;stroke-width:2;stroke-miterlimit:10;}
	.st9{fill:#38C15F;stroke:#0D0D0D;stroke-width:5;stroke-miterlimit:10;}
</style>
<g>
	<path d="M197.39,203.72c-6.29,1.66-10.38-2.36-15.2-4.93c-4.78-2.55-10.13-4.14-15.37-5.66c-3.46-1-5.67-2.74-6.97-6.09
		c-1.66-4.25-3.83-8.31-5.4-12.58c-0.45-1.23-0.12-3.36,0.71-4.35c5.94-7.09,12.08-14.01,18.23-20.92c0.78-0.87,1.87-1.74,2.97-2
		c15.23-3.66,30.37-7.85,45.76-10.67c28.81-5.27,57.77-9.7,86.65-14.58c3.64-0.62,6.51,0.43,9.38,2.46
		c10.8,7.61,21.71,15.05,32.43,22.77c1.66,1.2,3.1,3.33,3.67,5.31c2.22,7.83,3.47,15.98,6.18,23.62
		c3.89,10.96,8.68,21.62,13.24,32.34c2.03,4.77,3.97,9.67,6.77,13.99c6.4,9.88,13.29,19.44,20.05,29.09
		c0.53,0.76,1.46,1.39,2.34,1.75c12.69,5.27,25.28,10.67,36.03,19.54c2.9,2.39,6.27,4.25,8.92,6.86c1.38,1.36,2.57,3.95,2.31,5.77
		c-2.35,16.56-0.76,33,0.99,49.46c0.54,5.06,0.49,10.21,1.44,15.18c2.46,12.94,1.25,25.95,1,38.9c-0.24,12.87-1.66,25.71-2.55,38.57
		c-0.15,2.23-0.33,4.47-0.33,6.7c0.01,3.69-1.7,5.82-5.27,6.81c-13.12,3.68-26.22,7.46-39.32,11.22c-1.35,0.39-2.69,0.83-3.96,2.02
		c3-0.22,6-0.39,9-0.68c9.71-0.95,19.43-1.89,29.13-2.98c0.98-0.11,3.64-0.42,4.44-0.53c0.74-0.1-0.2-2.26,0.51-2.4
		c1.19-0.23,2.25-0.27,3.47-0.4c7.27-0.54,6.87-1.93,7.56,6.73c0.41,5.17,0.61,4.8-4.61,5.21c-1.82,0.14-5.41,0.56-5.72,0.46
		c-0.67-0.21-0.19-1.19-0.71-1.62c-1.83-1.5-8.06,0.51-10.69,0.76c-9.92,0.93-19.83,2.01-29.76,2.8c-3.68,0.3-2.8,2.55-2.66,4.74
		c0.09,1.33,0.36,2.21,1.07,2.66c0.55,0.35,1.36,0.44,2.55,0.27c8.76-1.22,17.57-2.09,26.35-3.14c2.7-0.32,4.3,0.7,4.85,3.39
		c0.9,4.38,1.71,8.8,2.85,13.12c0.27,1.03,1.79,2.55,2.58,2.46c1.74-0.21,3.45,0,5.11-0.75c0.1-0.04-0.28-2.57-0.21-2.59
		c7.09-0.97,8.48-1.14,12.24-1.31c0.69-0.03,1.06,4.89,1.12,5.39c0.86,7.17,1.35,6.67-6.36,7.12c-1.36,0.11-3.63,0.4-4.8,0.37
		c0,0-0.1-0.5-0.25-1.58c-0.05-0.4-0.13-0.91-0.74-0.84c-1.47,0.16-6.61,0.65-8.49,1.06c-3.25,0.7-4.46-0.6-4.95-3.59
		c-0.63-3.92-1.6-7.78-2.25-11.69c-0.39-2.31-1.13-3.25-3.82-2.85c-7.44,1.11-14.92,1.93-22.41,2.65c-2.71,0.26-3.64,1.28-3.53,4.03
		c0.26,6.53,0.29,6.62,6.88,5.92c3.64-0.39,7.29-0.66,10.94-0.88c2.8-0.17,3.94,1.42,4.26,4.06c1.55,12.82,3,28.36,4.72,41.16
		c0.07,2.31,0.9,1.07,3.23,1.38c1.14,0.16,0.98,4.69,1.3,7.65c0.15,1.41-0.24,2.51-0.48,2.57c-0.15,0.87-7.41,0.57-10.76,0.63
		c-0.5,0.01-1.4-1.11-1.49-1.8c-0.37-2.82-0.56-5.86-0.5-8.39c0.18-0.17,1.53-0.1,1.76-0.3c0.84-0.74-1.67-10.91-1.96-15.38
		c-0.34-5.33-1.72-10.59-2.65-15.88c-0.04-0.2-0.07-0.4-0.11-0.6c-1.38-7.77-1.38-7.77-9.23-6.9c-1.11,0.12-2.29,0.08-3.31,0.44
		c-0.64,0.23-1.53,1.11-1.51,1.65c0.2,3.91-1.82,5.59-5.43,5.89c-0.4,0.03-0.8,0.16-1.2,0.22c-6.9,0.97-7.01,0.99-5.78,7.99
		c1.29,5.34-0.13,5.46,4.05,5.41c0.35,0,0.33,1.11,0.47,1.74c0.21,0.98,0.14,2.02,0.21,3.04c0.49,7.21,0.49,7.21-6.8,7.64
		c-0.81,0.05-1.64-0.03-2.44,0.11c-2.8,0.51-3.95-0.69-3.96-3.45c-0.01-1.82-0.38-3.64-0.46-5.47c-0.04-0.88-0.48-2.12-0.03-2.34
		c0.28-0.09,1.17-0.29,1.48-0.35c0.64-0.12,0.02-3.33-0.75-7.38c-1.58-5.47-0.95-5.84-7.16-4.82c-3.03,0.36-6.08,0.57-9.07,1.17
		c-0.81,0.16-2.01,1.5-1.98,2.25c0.27,7.11,0.7,14.22,1.29,21.31c0.05,0.59,1.65,1.5,2.52,1.49c2.32-0.04,4.63-0.55,6.96-0.78
		c3.39-0.32,4.97,1.37,5.22,4.73c0.2,2.63-1.02,5.97,3.06,7.26c0.69,0.22,0.89,2.55,0.99,3.92c0.51,7.24,0.47,7.25-6.61,8.28
		c-1.21,0.18-2.43,0.29-3.64,0.32c-0.58,0.02-1.26-0.08-1.74-0.37c-1.66-1.02-1.94-10.24-0.66-11.63c0.75-0.81,1.29-2.21,1.16-3.24
		c-0.07-0.52-1.86-1.15-2.87-1.14c-2.23,0.02-4.44,0.54-6.67,0.64c-3.74,0.16-5.24-1.22-5.51-4.91c-0.6-8.11-1.18-16.23-1.71-24.35
		c-0.11-1.61-0.43-3.13-2.36-2.46c-0.76,0.26-1.53,1.92-1.47,2.89c0.82,12.99,1.82,25.97,2.7,38.95c0.26,3.91-1.4,5.6-5.41,5.65
		c-17,0.23-33.99,0.49-50.99,0.53c-2.88,0.01-5.82-0.85-8.64-1.64c-11.46-3.22-23.03-6.13-34.25-10.06
		c-6.04-2.12-11.5-5.98-17.07-9.32c-1.11-0.67-1.83-2.44-2.2-3.85c-4.22-15.92-8.41-31.84-12.47-47.8
		c-3.78-14.87-7.38-29.78-11.15-44.65c-0.21-0.83-1.15-1.79-1.97-2.09c-5.66-2.05-12.76-2.5-16.72-6.27
		c-4.59-4.37-8.02-11.36-9.02-17.68c-1.04-6.54,1.02-13.73,2.52-20.45c0.79-3.54,3.23-6.73,5.03-10.03
		c2.42-4.46,4.98-8.84,7.36-13.32c0.38-0.71,0.27-1.8,0.12-2.66c-2.51-14.1-5.39-28.15-7.39-42.32c-0.56-3.99,1.78-8.3,2.14-12.52
		c0.83-9.81,4.92-17.71,12.4-24.1c3.69-3.15,6.51-7.44,10.44-10.19c4.95-3.47,10.54-6.06,16.01-8.72c4.83-2.35,5.09-2.21,3.55-7.19
		c-1.34-4.32-3.03-8.53-4.8-12.69c-0.31-0.73-2.12-1.63-2.66-1.34c-6.56,3.45-13.03,1.67-19.61,0.13
		c-19.22-4.5-38.48-8.79-57.67-13.39c-1.71-0.41-3.03-2.48-4.53-3.77c1.29-1.49,2.29-3.7,3.92-4.36
		c12.44-5.05,25.03-9.7,37.49-14.72c2.64-1.06,4.88-3.1,7.31-4.68C197.54,204.55,197.46,204.13,197.39,203.72z"/>
	<linearGradient id="SVGID_1_" gradientUnits="userSpaceOnUse" x1="280.2435" y1="336.8033" x2="410.0017" y2="509.2867">
		<stop  offset="0" style="stop-color:#565653"/>
		<stop  offset="1" style="stop-color:#2C2C2E"/>
	</linearGradient>
	<path class="st0" d="M321.54,547.2c-1.43,0-2.86-0.11-4.27,0.02c-13.61,1.21-26.71-1.08-39.54-5.55c-4.7-1.64-9.7-2.47-14.3-4.33
		c-6.08-2.46-11.96-5.47-17.79-8.5c-1-0.52-1.58-2.29-1.92-3.59c-2.53-9.86-4.88-19.76-7.41-29.62
		c-3.99-15.56-8.08-31.09-12.12-46.63c-1.02-3.91-2-7.84-3.05-11.74c-0.73-2.7,0.02-4,3-4.57c9.69-1.85,19.37-3.82,28.95-6.15
		c2.81-0.68,5.74-2.25,7.85-4.22c13.91-12.95,27.6-26.14,41.42-39.19c0.98-0.93,2.53-1.23,3.64-2.06c1.14-0.85,3.08-2.3,2.89-2.95
		c-0.73-2.47-1.76-5.19-3.57-6.85c-0.88-0.81-3.91,0.1-5.59,0.96c-1.28,0.66-1.97,2.48-2.93,3.77c-1.64,2.2-3.05,4.62-4.97,6.54
		c-4.15,4.18-8.58,8.08-12.87,12.12c-8.06,7.59-16.08,15.24-24.19,22.77c-1.06,0.98-2.52,1.78-3.92,2.09
		c-9.04,1.99-18.15,3.67-27.16,5.79c-3.72,0.87-4.72-0.45-5.23-3.84c-1.7-11.37-3.58-22.71-5.55-34.04
		c-3.4-19.52-6.92-39.02-10.36-58.54c-0.16-0.92,0.02-1.9,0.05-2.86c0.94,0.29,1.92,0.51,2.83,0.89c6.66,2.72,13.09,6.74,20.01,7.95
		c12.98,2.27,26.24,2.95,39.38,4.22c8.79,0.85,17.59,2.01,26.4,2.22c12.2,0.29,24.44,0.2,36.62-0.45
		c10.24-0.54,20.39-2.5,30.63-3.14c20.99-1.32,41.03-7.18,61.16-12.52c4.68-1.24,8.71-4.99,12.96-7.71
		c2.14-1.37,4.08-3.03,6.11-4.58c1.68-1.28,2.77-1.2,2.98,1.2c1.41,16.21,3.6,32.4,4.05,48.63c0.45,16.04-0.8,32.12-1.41,48.19
		c-0.26,6.71-0.85,13.4-1.15,20.1c-0.1,2.16-0.88,3.16-3.04,3.77c-14.19,4.01-28.25,8.55-42.55,12.14
		c-6.83,1.71-14.08,1.78-21.15,2.48c-9.41,0.93-18.83,1.7-28.25,2.62c-4.17,0.4-5.62,1.96-5.42,6.14
		c0.93,20.02,1.92,40.03,2.98,60.04c0.47,8.83,1.11,17.66,1.79,26.48c0.18,2.36-1.12,2.45-2.79,2.44
		c-7.74-0.01-15.47-0.01-23.21-0.01C321.54,547.14,321.54,547.17,321.54,547.2z"/>
	<g>
		<g>
			<defs>
				<path id="SVGID_2_" d="M188.05,151.62c15.3-3.21,30.53-6.78,45.91-9.55c22.82-4.11,45.79-7.38,68.58-11.61
					c6.63-1.23,11.6,0.1,16.76,4.02c7.69,5.83,15.87,11,23.61,16.78c1.92,1.43,3.49,3.91,4.24,6.23
					c4.33,13.42,7.97,27.08,12.65,40.37c2.96,8.39,6.95,16.5,11.22,24.34c3.53,6.48,8.04,12.45,12.3,18.51
					c5.95,8.47,12.48,16.57,15.75,26.62c0.82,2.51,1.6,5.08,2.78,7.43c4.81,9.58,5.07,19.71,4.16,30.08
					c-0.35,4.05-0.45,8.15-0.23,12.21c0.17,3.11-0.9,4.41-3.92,5.24c-14.36,3.93-28.96,6.25-43.72,8.12
					c-23.49,2.96-47.04,3.67-70.65,3.47c-6.57-0.06-13.15-1.14-19.69-2.05c-1.1-0.15-2.54-1.67-2.88-2.84
					c-1.87-6.45-3.4-13-5.15-19.48c-4.09-15.21-8.07-30.46-12.44-45.6c-2.92-10.14-6.09-20.21-11.31-29.52
					c-4.96-8.85-9.57-17.89-14.39-26.82c-7.13-13.22-12.79-27.01-16.43-41.6c-0.8-3.19-2.51-5.27-5.56-6.73
					c-4-1.91-7.73-4.39-11.58-6.62C188.07,152.26,188.06,151.94,188.05,151.62z"/>
			</defs>
			<clipPath id="SVGID_3_">
				<use xlink:href="#SVGID_2_"  style="overflow:visible;"/>
			</clipPath>
			<g class="st1">
			</g>
		</g>
	</g>
	<linearGradient id="SVGID_4_" gradientUnits="userSpaceOnUse" x1="225.9454" y1="282.2441" x2="229.9071" y2="323.3873">
		<stop  offset="0" style="stop-color:#414141"/>
		<stop  offset="0.0223" style="stop-color:#424242"/>
		<stop  offset="0.0363" style="stop-color:#424242"/>
		<stop  offset="0.1089" style="stop-color:#3B3B3B"/>
		<stop  offset="0.1425" style="stop-color:#424242"/>
		<stop  offset="1" style="stop-color:#151515"/>
		<stop  offset="1" style="stop-color:#0D0D0D"/>
	</linearGradient>
	<path class="st2" d="M254.14,331.18c-10.24-1.46-20.65-2.23-30.67-4.61c-6.6-1.57-12.68-5.37-18.9-8.38
		c-0.82-0.4-1.63-2.05-1.49-2.98c0.74-4.82,1.77-9.6,2.75-14.38c0.16-0.78,0.43-1.67,0.96-2.21c5.88-6.02,11.42-12.47,17.9-17.78
		c4.3-3.53,9.95-5.43,15.07-7.92c0.4-0.19,1.81,0.61,1.96,1.16c4.94,18.03,9.78,36.09,14.66,54.14
		C256.93,330.28,256.33,331.18,254.14,331.18z"/>
	<linearGradient id="SVGID_5_" gradientUnits="userSpaceOnUse" x1="422.9341" y1="263.2985" x2="426.8957" y2="304.4413">
		<stop  offset="0" style="stop-color:#414141"/>
		<stop  offset="0.0223" style="stop-color:#424242"/>
		<stop  offset="0.0363" style="stop-color:#424242"/>
		<stop  offset="0.1089" style="stop-color:#3B3B3B"/>
		<stop  offset="0.1425" style="stop-color:#424242"/>
		<stop  offset="1" style="stop-color:#151515"/>
		<stop  offset="1" style="stop-color:#0D0D0D"/>
	</linearGradient>
	<path class="st3" d="M406.28,262.61c6.64,3.45,13.49,6.57,19.87,10.44c5.36,3.25,10.21,7.35,15.24,11.14
		c0.57,0.43,1.23,1.32,1.16,1.92c-0.64,5.22-1.37,10.43-2.25,15.61c-0.13,0.74-1.07,1.45-1.78,1.97
		c-5.96,4.42-11.95,8.8-17.94,13.18c-0.33,0.24-0.67,0.47-1.03,0.65c-4.51,2.25-5.75,1.52-5.65-3.44
		c0.14-6.92,0.11-13.85,0.59-20.74c0.68-9.75-4.17-17.83-7.41-26.4c-0.45-1.19-1.05-2.33-1.59-3.49
		C405.77,263.18,406.03,262.9,406.28,262.61z"/>
	<g>
		<g>
			<defs>
				<path id="SVGID_8_" d="M195.81,197.06c-1.91-0.76-4.14-1.12-5.66-2.35c-5.38-4.33-11.72-6.16-18.2-7.87
					c-4.16-1.1-9.76-9.12-9.35-13.34c0.11-1.15,1.2-2.3,2.05-3.27c3.61-4.13,7.36-8.13,10.93-12.29c1.61-1.88,3.03-2.18,5.21-0.83
					c4.15,2.56,8.41,4.95,12.75,7.18c2.57,1.32,3.85,3.23,4.69,5.95c2.32,7.54,4.83,15.02,7.5,22.44c0.88,2.44,0.62,3.3-2.08,3.31
					c-2.53,0.01-5.07,0.35-7.6,0.55C195.97,196.72,195.89,196.89,195.81,197.06z"/>
			</defs>
			<clipPath id="SVGID_6_">
				<use xlink:href="#SVGID_8_"  style="overflow:visible;"/>
			</clipPath>
			<g class="st4">
			</g>
		</g>
	</g>
	<g>
		<g>
			<defs>
				<path id="SVGID_12_" d="M164.88,227.65c9.05-3.5,17.12-6.85,25.34-9.75c7.05-2.48,12.45-7.18,17.63-12.2
					c2.17-2.1,3.44-1.8,4.77,0.58c0.25,0.44,0.53,0.87,0.76,1.32c4.76,9.31,9.48,18.64,14.31,27.92c1.13,2.16,0.89,3.57-1.61,3.91
					c-2.55,0.35-5.27,0.96-7.69,0.43C200.84,236.01,183.34,231.9,164.88,227.65z"/>
			</defs>
			<clipPath id="SVGID_7_">
				<use xlink:href="#SVGID_12_"  style="overflow:visible;"/>
			</clipPath>
			<g class="st5">
			</g>
		</g>
	</g>
	<linearGradient id="SVGID_9_" gradientUnits="userSpaceOnUse" x1="351.3499" y1="471.1357" x2="381.1289" y2="471.1357">
		<stop  offset="0" style="stop-color:#565653"/>
		<stop  offset="1" style="stop-color:#2C2C2E"/>
	</linearGradient>
	<path class="st6" d="M351.69,466.03c-0.76-6.48-0.77-6.55,5.7-7.29c6.86-0.78,13.73-1.46,20.61-2.01c0.67-0.05,2.01,1.06,2.06,1.7
		c0.5,7.5,0.88,15.01,1.07,22.52c0.02,0.73-1.31,2.07-2.13,2.16c-8.17,0.91-16.36,1.62-24.55,2.39c-2.28,0.22-2.76-1.17-2.76-3.03
		C351.69,477,351.69,471.52,351.69,466.03z"/>
	<path class="st7" d="M203.47,379.49c0.99,5.93,1.88,11.18,2.74,16.44c1.6,9.72,3.11,19.45,4.83,29.15
		c0.56,3.16-0.67,3.09-2.89,2.12c-2.51-1.1-5.08-2.07-7.54-3.28c-0.93-0.46-1.63-1.39-2.38-2.16c-0.27-0.28-0.3-0.76-0.54-1.08
		c-5.62-7.55-3.13-15.79-2.28-23.99C196.07,390.17,199.63,385.28,203.47,379.49z"/>
	<path class="st8" d="M395.91,489.2c0.02,5.66,0.01,5.55-5.24,6.08c-10.91,1.09-21.8,2.39-32.71,3.43c-2.09,0.2-5.15,1.77-5.62-2.38
		c-0.23-2.02,0.13-3.15,2.59-3.35c9.81-0.82,19.61-1.82,29.4-2.84c3.93-0.41,5.22-1.82,5.08-5.76c-0.28-8.53-0.71-17.05-1.14-25.58
		c-0.1-1.89,0.33-3.12,2.46-3.4c1.78-0.24,2.63,0.19,2.73,2.15c0.32,6.39,0.72,12.78,1.21,19.16
		C395.01,481.04,395.52,485.35,395.91,489.2z"/>
	<path class="st9" d="M259.82,204.71c-1.82-0.74-2.95-0.99-3.83-1.6c-4.74-3.33-9.44-6.71-14.1-10.15
		c-1.87-1.39-3.58-3.16-2.03-5.65c1.63-2.62,4.01-1.99,6.13-0.59c2.79,1.85,5.63,3.69,8.15,5.87c2.75,2.39,3.72,0.62,4.38-1.61
		c1.71-5.75,3.25-11.55,4.87-17.33c0.27-0.98,0.52-1.97,0.88-2.92c0.87-2.35,2.54-3.44,5.02-2.75c2.62,0.72,3.2,2.67,2.51,5.03
		c-2.13,7.2-4.35,14.37-6.51,21.56c-0.64,2.14-0.93,4.45-1.93,6.41C262.59,202.47,260.98,203.53,259.82,204.71z"/>
	<path class="st9" d="M290.23,298.93c1.7,0.88,3.15,1.39,4.31,2.28c2.56,2,5.03,4.13,7.42,6.32c1.75,1.61,2.65,1.3,3.38-0.91
		c2.06-6.17,4.2-12.31,6.38-18.44c0.43-1.22,0.88-2.86,1.83-3.39c1.33-0.74,3.77-1.36,4.58-0.67c1.13,0.96,2.03,3.44,1.59,4.81
		c-2.06,6.35-4.63,12.54-6.97,18.8c-0.93,2.47-1.69,5.01-2.64,7.47c-1.47,3.79-4.55,4.78-7.74,2.3c-4.65-3.61-9.24-7.31-13.6-11.25
		c-1.05-0.94-1.58-3.03-1.45-4.51C287.39,300.8,289.09,299.97,290.23,298.93z"/>
	<path class="st9" d="M298.28,227.16c-0.12,0.55-0.23,1.36-0.46,2.13c-2.69,8.84-5.35,17.68-8.12,26.5
		c-1.18,3.77-3.72,4.69-7.06,2.6c-4.65-2.91-9.36-5.76-13.73-9.04c-1.15-0.86-1.97-3.54-1.5-4.86c0.86-2.39,3.42-2.45,5.46-1.32
		c2.92,1.62,5.7,3.53,8.46,5.42c1.84,1.26,2.59,0.71,3.13-1.29c1.78-6.58,3.56-13.16,5.62-19.66c0.49-1.55,1.8-3.23,3.2-4.01
		C295.74,222.25,298.22,224.07,298.28,227.16z"/>
	<path d="M315.62,243.37c-0.81-0.81-2.82-1.91-2.92-3.17c-0.11-1.31,1.35-3.67,2.58-4.04c15.38-4.62,30.85-8.99,46.3-13.37
		c2.34-0.66,4.68-0.51,5.44,2.32c0.75,2.79-1.12,4.11-3.49,4.79c-15.05,4.33-30.1,8.63-45.16,12.93
		C317.79,243.01,317.17,243.07,315.62,243.37z"/>
	<path d="M339.11,301.56c-0.92-0.85-3.11-1.97-3.12-3.11c-0.01-1.4,1.54-3.7,2.87-4.08c12.59-3.68,25.27-7.04,37.93-10.49
		c2.35-0.64,4.7-1.31,7.07-1.88c2.4-0.58,4.7-0.34,5.39,2.46c0.69,2.77-1.19,4.11-3.57,4.76c-8.05,2.18-16.11,4.33-24.16,6.49
		c-5.99,1.61-11.98,3.22-17.97,4.81C342.37,300.82,341.18,301.07,339.11,301.56z"/>
	<path d="M290.68,187.58c-0.78-0.73-2.87-1.81-2.86-2.87c0.02-1.53,1.21-3.82,2.52-4.4c3.7-1.63,7.7-2.57,11.59-3.76
		c10.02-3.05,20.03-6.16,30.09-9.07c1.74-0.5,3.86-0.59,5.57-0.09c2.64,0.78,2.84,3.9,0.52,5.42c-0.92,0.61-1.99,1.05-3.05,1.38
		c-13.79,4.28-27.6,8.53-41.4,12.77C292.98,187.17,292.27,187.25,290.68,187.58z"/>
</g>
</svg>
